<svg width="688" height="220" viewBox="0 0 688 220" fill="none" xmlns="http://www.w3.org/2000/svg">
<g clip-path="url(#clip0_1_19)">
<path d="M498.669 116.588C498.669 116.588 492.256 81.045 517.474 60.3584C517.474 60.3584 514.557 40.232 535.596 18.093C537.603 15.9766 540.975 16.0181 543.168 17.9478C549.85 23.8404 560.794 38.2194 567.827 47.1621C567.827 47.1621 582.577 24.0272 595.755 16.7236C597.989 15.4787 600.782 16.2671 602.086 18.4665C605.623 24.4629 616.318 35.0448 624.18 50.4612C639.013 79.6133 636.985 116.588 636.985 116.588H498.669Z" fill="black"/>
<path d="M550.322 87.2924C551.569 77.7248 546.022 69.109 537.933 68.0487C529.844 66.9883 522.276 73.8848 521.029 83.4525C519.782 93.0201 525.329 101.636 533.418 102.696C541.507 103.757 549.076 96.8601 550.322 87.2924Z" fill="white" stroke="black" stroke-miterlimit="10"/>
<path d="M652.314 118.268C652.314 118.268 651.114 88.2863 647.825 71.0441C644.598 54.1337 636.033 22.8237 677.925 1.34869C680.035 0.269748 682.435 -0.228225 684.793 0.103757C688.207 0.560232 691 2.51062 681.732 9.62748C666.899 20.9978 652.376 29.1729 653.824 48.1166C655.272 67.0603 657.61 72.3097 659.348 94.179C661.086 116.048 659.637 118.268 659.637 118.268H652.314Z" fill="black"/>
<path d="M599.065 95.2499C602.057 86.0798 598.199 76.5824 590.445 74.037C582.692 71.4916 573.981 76.8621 570.988 86.0322C567.996 95.2023 571.854 104.7 579.607 107.245C587.361 109.79 596.072 104.42 599.065 95.2499Z" fill="white" stroke="black" stroke-miterlimit="10"/>
<path d="M592.4 93.0616C593.974 88.2369 591.95 83.242 587.878 81.9052C583.806 80.5683 579.228 83.3957 577.654 88.2204C576.079 93.045 578.104 98.0399 582.176 99.3768C586.248 100.714 590.825 97.8863 592.4 93.0616Z" fill="black"/>
<path d="M543.238 87.1187C544.372 82.1712 541.906 77.3798 537.731 76.4168C533.555 75.4538 529.251 78.6838 528.116 83.6313C526.982 88.5789 529.448 93.3703 533.623 94.3333C537.799 95.2963 542.103 92.0662 543.238 87.1187Z" fill="black"/>
<path d="M8.50249 28.011C9.06105 28.011 9.66098 28.1355 10.2816 28.3844C10.9022 28.6334 11.3987 29.0484 11.8125 29.6086L45.4915 80.298L42.2022 80.1736L76.0054 29.6086C76.895 28.3844 77.9914 27.8657 79.2947 28.011C80.267 28.011 81.0945 28.3637 81.7979 29.0484C82.4805 29.7331 82.8322 30.6253 82.8322 31.6835V110.031C82.8322 111.006 82.4598 111.857 81.7358 112.604C81.0117 113.33 80.1015 113.704 79.0464 113.704C77.9086 113.704 76.9777 113.33 76.2329 112.604C75.5089 111.878 75.1365 111.006 75.1365 110.031V39.1531L77.3294 39.4021L46.4431 86.2945C46.1949 86.7924 45.8432 87.1659 45.3467 87.4564C44.8502 87.7469 44.2916 87.8506 43.6297 87.7676C43.0504 87.8506 42.5125 87.7469 41.9747 87.4564C41.4368 87.1659 41.023 86.7717 40.692 86.2945L9.72304 38.9041L12.04 37.3064V110.031C12.04 111.006 11.6883 111.857 11.0057 112.604C10.323 113.33 9.43342 113.704 8.37836 113.704C7.32331 113.704 6.47512 113.33 5.81313 112.604C5.15113 111.878 4.84082 111.006 4.84082 110.031V31.6835C4.84082 30.7083 5.19251 29.8576 5.87519 29.1106C6.57856 28.3844 7.44743 28.011 8.50249 28.011Z" fill="black"/>
<path d="M150.087 109.907C150.005 110.965 149.57 111.857 148.805 112.604C148.039 113.33 147.15 113.704 146.177 113.704C145.04 113.704 144.129 113.33 143.426 112.604C142.743 111.878 142.392 110.965 142.392 109.907V31.808C142.392 30.7498 142.764 29.8576 143.488 29.1107C144.212 28.3845 145.164 28.011 146.302 28.011C147.274 28.011 148.143 28.3845 148.929 29.1107C149.694 29.8369 150.087 30.7498 150.087 31.808V109.907Z" fill="black"/>
<path d="M271.895 34.3808C272.867 35.0448 273.446 35.8748 273.612 36.8915C273.777 37.9081 273.529 38.9041 272.888 39.9C272.308 40.6262 271.584 41.0412 270.695 41.1242C269.805 41.2072 268.936 41.0412 268.129 40.6262C265.026 38.5929 261.716 36.9952 258.179 35.854C254.641 34.7128 250.835 34.1319 246.759 34.1319C241.794 34.1319 237.181 35.0033 232.899 36.767C228.617 38.5306 224.914 41.0412 221.728 44.361C218.562 47.6601 216.101 51.5609 214.342 56.0426C212.584 60.5244 211.715 65.4626 211.715 70.8573C211.715 76.418 212.605 81.4392 214.404 85.9832C216.183 90.5065 218.687 94.4072 221.914 97.6648C225.12 100.922 228.844 103.412 233.085 105.134C237.305 106.857 241.877 107.707 246.759 107.707C250.752 107.707 254.517 107.126 258.055 105.985C261.592 104.844 264.902 103.288 268.005 101.337C268.812 100.839 269.702 100.673 270.633 100.777C271.564 100.902 272.329 101.379 272.888 102.188C273.612 103.08 273.881 104.055 273.674 105.072C273.467 106.089 272.929 106.898 272.019 107.458C269.991 108.765 267.592 109.99 264.819 111.131C262.047 112.272 259.13 113.185 256.027 113.89C252.924 114.575 249.842 114.928 246.759 114.928C240.905 114.928 235.402 113.87 230.292 111.753C225.182 109.637 220.611 106.628 216.618 102.748C212.625 98.8683 209.522 94.2413 207.288 88.8466C205.054 83.4519 203.937 77.4554 203.937 70.8573C203.937 64.4874 205.033 58.6362 207.226 53.283C209.419 47.9298 212.48 43.3028 216.39 39.3813C220.3 35.4598 224.851 32.4097 230.065 30.2103C235.278 28.0109 240.843 26.9113 246.78 26.9113C251.414 26.9113 255.883 27.5752 260.206 28.8616C264.488 30.1688 268.398 32.0155 271.895 34.3808Z" fill="black"/>
<path d="M329.757 28.011C330.729 28.011 331.598 28.3845 332.384 29.1107C333.149 29.8369 333.542 30.7498 333.542 31.808V109.907C333.46 110.965 333.025 111.857 332.26 112.604C331.494 113.33 330.605 113.704 329.632 113.704C328.495 113.704 327.584 113.33 326.881 112.604C326.198 111.878 325.847 110.965 325.847 109.907V31.808C325.847 30.7498 326.219 29.8576 326.943 29.1107C327.688 28.3845 328.619 28.011 329.757 28.011ZM329.157 66.3341H387.123L386.999 73.4302H328.66L329.157 66.3341ZM386.999 28.011C388.136 28.011 389.047 28.3845 389.75 29.1107C390.433 29.8369 390.784 30.7498 390.784 31.808V109.907C390.702 110.965 390.309 111.857 389.626 112.604C388.943 113.33 388.012 113.704 386.874 113.704C385.819 113.704 384.93 113.33 384.185 112.604C383.461 111.878 383.089 110.965 383.089 109.907V31.808C383.089 30.7498 383.482 29.8576 384.247 29.1107C385.033 28.3845 385.944 28.011 386.999 28.011Z" fill="black"/>
<path d="M458.039 109.907C457.957 110.965 457.522 111.857 456.757 112.604C455.991 113.33 455.102 113.704 454.13 113.704C452.992 113.704 452.081 113.33 451.378 112.604C450.695 111.878 450.344 110.965 450.344 109.907V31.808C450.344 30.7498 450.716 29.8576 451.44 29.1107C452.164 28.3845 453.116 28.011 454.254 28.011C455.226 28.011 456.095 28.3845 456.881 29.1107C457.646 29.8369 458.039 30.7498 458.039 31.808V109.907Z" fill="black"/>
<path d="M22.0526 219.959C17.6048 220.021 13.7362 219.315 10.4676 217.842C7.17834 216.369 4.05455 214.17 1.07556 211.244C0.785941 211.016 0.537692 210.705 0.330818 210.373C0.123945 210.02 0.0205078 209.605 0.0205078 209.148C0.0205078 208.443 0.289444 207.8 0.848003 207.219C1.40656 206.638 2.02718 206.347 2.73055 206.347C3.43392 206.347 4.07523 206.638 4.65448 207.219C6.93009 209.688 9.5367 211.555 12.4329 212.862C15.3292 214.149 18.453 214.792 21.7836 214.792C24.5971 214.792 27.1003 214.356 29.2931 213.464C31.486 212.593 33.2237 211.327 34.527 209.667C35.8097 208.028 36.451 206.119 36.451 203.94C36.451 201.243 35.7269 199.044 34.2581 197.384C32.7893 195.703 30.8654 194.334 28.4656 193.234C26.0659 192.155 23.3972 191.159 20.4803 190.288C18.0806 189.582 15.7843 188.773 13.6328 187.86C11.4606 186.947 9.5367 185.827 7.84033 184.519C6.14397 183.192 4.81998 181.573 3.88905 179.623C2.95811 177.693 2.48231 175.328 2.48231 172.568C2.48231 169.456 3.3098 166.696 4.9441 164.289C6.57841 161.882 8.91608 159.994 11.9364 158.604C14.9568 157.235 18.453 156.529 22.4249 156.529C25.8797 156.529 29.2104 157.11 32.3962 158.293C35.5821 159.476 38.1266 161.198 39.9885 163.501C40.8574 164.435 41.3125 165.285 41.3125 166.053C41.3125 166.634 41.0229 167.236 40.4436 167.817C39.8644 168.398 39.2231 168.688 38.5197 168.688C37.9405 168.688 37.444 168.481 37.0302 168.066C36.0372 166.841 34.7753 165.721 33.2444 164.767C31.7136 163.791 30.0379 163.044 28.1967 162.526C26.3555 161.986 24.4316 161.737 22.4456 161.737C19.6942 161.737 17.2117 162.173 15.0189 163.024C12.826 163.874 11.0883 165.099 9.82632 166.675C8.5437 168.232 7.9024 170.141 7.9024 172.381C7.9024 174.851 8.60577 176.884 10.0125 178.461C11.4193 180.038 13.2604 181.366 15.536 182.382C17.8116 183.42 20.2528 184.374 22.818 185.246C25.3419 185.951 27.7416 186.76 30.0586 187.673C32.3756 188.586 34.4236 189.707 36.2027 191.055C37.9818 192.404 39.3886 194.105 40.4229 196.16C41.4573 198.214 41.9538 200.807 41.9538 203.92C41.9538 206.907 41.1056 209.626 39.4093 212.032C37.7129 214.439 35.3752 216.348 32.4169 217.759C29.5 219.149 26.0245 219.896 22.0526 219.959Z" fill="black"/>
<path d="M121.973 162.422C121.27 162.422 120.649 162.194 120.132 161.717C119.615 161.239 119.346 160.638 119.346 159.87C119.346 159.164 119.615 158.583 120.132 158.106C120.649 157.629 121.27 157.401 121.973 157.401H163.782C164.486 157.401 165.106 157.629 165.623 158.106C166.141 158.583 166.409 159.185 166.409 159.953C166.409 160.721 166.141 161.322 165.623 161.758C165.106 162.194 164.486 162.422 163.782 162.422H121.973ZM142.888 219.066C142.06 219.066 141.398 218.797 140.902 218.278C140.405 217.759 140.157 217.137 140.157 216.431V160.306H145.598V216.431C145.598 217.137 145.329 217.759 144.812 218.278C144.295 218.817 143.653 219.066 142.888 219.066Z" fill="black"/>
<path d="M287.264 157.007C288.092 157.007 288.733 157.256 289.188 157.754C289.664 158.252 289.892 158.895 289.892 159.642V196.118C289.892 200.455 288.857 204.397 286.809 207.924C284.761 211.452 282.01 214.253 278.555 216.348C275.1 218.423 271.211 219.481 266.867 219.481C262.543 219.481 258.633 218.444 255.137 216.348C251.661 214.273 248.889 211.452 246.841 207.924C244.793 204.397 243.759 200.475 243.759 196.118V159.642C243.759 158.874 244.007 158.252 244.504 157.754C245 157.256 245.683 157.007 246.572 157.007C247.276 157.007 247.896 157.256 248.413 157.754C248.931 158.252 249.2 158.895 249.2 159.642V196.118C249.2 199.521 250.006 202.571 251.62 205.289C253.234 207.987 255.385 210.144 258.074 211.763C260.764 213.381 263.701 214.19 266.867 214.19C270.135 214.19 273.135 213.381 275.824 211.763C278.514 210.144 280.665 207.987 282.279 205.289C283.892 202.592 284.699 199.542 284.699 196.118V159.642C284.699 158.874 284.927 158.252 285.402 157.754C285.878 157.256 286.499 157.007 287.264 157.007Z" fill="black"/>
<path d="M392.294 157.401C396.618 157.401 400.425 158.231 403.672 159.87C406.92 161.509 409.61 163.791 411.699 166.696C413.809 169.601 415.382 172.9 416.395 176.614C417.409 180.307 417.926 184.188 417.926 188.234C417.926 193.877 416.995 199.023 415.154 203.691C413.313 208.36 410.499 212.095 406.714 214.875C402.928 217.676 398.128 219.066 392.274 219.066H369.89C369.187 219.066 368.566 218.797 368.049 218.278C367.532 217.759 367.263 217.137 367.263 216.431V160.057C367.263 159.351 367.532 158.729 368.049 158.21C368.566 157.67 369.187 157.422 369.89 157.422H392.294V157.401ZM391.405 213.879C396.391 213.879 400.383 212.738 403.445 210.435C406.486 208.152 408.72 205.04 410.168 201.139C411.596 197.239 412.32 192.923 412.32 188.234C412.32 184.831 411.927 181.573 411.141 178.502C410.355 175.411 409.113 172.693 407.458 170.307C405.803 167.92 403.631 166.053 400.962 164.663C398.294 163.293 395.129 162.588 391.426 162.588H372.186L372.807 161.8V214.751L372.29 213.858H391.405V213.879Z" fill="black"/>
<path d="M500.841 216.348C500.779 217.116 500.469 217.759 499.91 218.278C499.352 218.817 498.731 219.066 498.028 219.066C497.2 219.066 496.538 218.797 496.042 218.278C495.545 217.759 495.297 217.095 495.297 216.348V160.14C495.297 159.372 495.566 158.729 496.083 158.21C496.6 157.67 497.283 157.422 498.11 157.422C498.814 157.422 499.434 157.691 499.993 158.21C500.551 158.729 500.82 159.393 500.82 160.14V216.348H500.841Z" fill="black"/>
<path d="M637.047 188.275C637.047 192.923 636.323 197.156 634.895 201.015C633.468 204.853 631.42 208.215 628.793 211.057C626.165 213.9 623.041 216.099 619.442 217.655C615.842 219.212 611.912 220 607.629 220C603.347 220 599.416 219.212 595.817 217.655C592.217 216.099 589.093 213.9 586.466 211.057C583.839 208.215 581.791 204.853 580.363 201.015C578.936 197.176 578.212 192.923 578.212 188.275C578.212 183.627 578.936 179.395 580.363 175.535C581.791 171.697 583.839 168.335 586.466 165.493C589.093 162.65 592.217 160.451 595.817 158.895C599.416 157.339 603.347 156.55 607.629 156.55C611.912 156.55 615.842 157.339 619.442 158.895C623.041 160.451 626.165 162.65 628.793 165.493C631.42 168.335 633.468 171.697 634.895 175.535C636.323 179.395 637.047 183.648 637.047 188.275ZM631.42 188.275C631.42 183.046 630.406 178.461 628.4 174.498C626.372 170.535 623.579 167.443 620.021 165.202C616.442 162.961 612.325 161.862 607.629 161.862C602.995 161.862 598.899 162.982 595.279 165.202C591.679 167.443 588.866 170.535 586.839 174.498C584.811 178.461 583.818 183.067 583.818 188.275C583.818 193.504 584.832 198.089 586.839 202.073C588.866 206.036 591.679 209.128 595.279 211.369C598.879 213.609 602.995 214.709 607.629 214.709C612.305 214.709 616.442 213.589 620.021 211.369C623.6 209.128 626.393 206.036 628.4 202.073C630.406 198.11 631.42 193.504 631.42 188.275Z" fill="black"/>
</g>
<defs>
<clipPath id="clip0_1_19">
<rect width="688" height="220" fill="white"/>
</clipPath>
</defs>
</svg>
